<svg width="23" height="7" viewBox="0 0 23 7" fill="none" xmlns="http://www.w3.org/2000/svg">
<path d="M3.22325 6.16C2.36992 6.16 1.68725 5.904 1.17525 5.392C0.684583 4.88 0.43925 4.21867 0.43925 3.408C0.43925 2.61867 0.684583 1.97867 1.17525 1.488C1.68725 0.976 2.36992 0.72 3.22325 0.72C4.07658 0.72 4.73792 0.976 5.20725 1.488C5.69792 1.97867 5.94325 2.61867 5.94325 3.408C5.94325 4.21867 5.69792 4.88 5.20725 5.392C4.73792 5.904 4.07658 6.16 3.22325 6.16ZM11.5358 6.16C10.6824 6.16 9.99975 5.904 9.48775 5.392C8.99708 4.88 8.75175 4.21867 8.75175 3.408C8.75175 2.61867 8.99708 1.97867 9.48775 1.488C9.99975 0.976 10.6824 0.72 11.5358 0.72C12.3891 0.72 13.0504 0.976 13.5198 1.488C14.0104 1.97867 14.2558 2.61867 14.2558 3.408C14.2558 4.21867 14.0104 4.88 13.5198 5.392C13.0504 5.904 12.3891 6.16 11.5358 6.16ZM19.8483 6.16C18.9949 6.16 18.3123 5.904 17.8003 5.392C17.3096 4.88 17.0643 4.21867 17.0643 3.408C17.0643 2.61867 17.3096 1.97867 17.8003 1.488C18.3123 0.976 18.9949 0.72 19.8483 0.72C20.7016 0.72 21.3629 0.976 21.8323 1.488C22.3229 1.97867 22.5683 2.61867 22.5683 3.408C22.5683 4.21867 22.3229 4.88 21.8323 5.392C21.3629 5.904 20.7016 6.16 19.8483 6.16Z" fill="black"/>
</svg>
